<svg width="16" height="16" viewBox="0 0 16 16" fill="none" xmlns="http://www.w3.org/2000/svg">
<g clip-path="url(#clip0_0_6868)">
<path d="M0.219951 8.00762C0.228615 12.4083 3.79424 15.954 8.26027 16C11.6719 15.9313 14.6211 13.8486 15.7468 10.6542C15.952 10.0697 15.3182 9.54517 14.7824 9.85708C13.9764 10.3283 13.0594 10.5763 12.1258 10.5755C11.4366 10.5772 10.7539 10.4427 10.1169 10.1797C9.47982 9.91675 8.90101 9.53051 8.41369 9.04319C7.92636 8.55586 7.54012 7.97705 7.27715 7.34001C7.01418 6.70297 6.87967 6.02024 6.88134 5.33106C6.88095 4.53464 7.06193 3.74859 7.41055 3.03252C7.75918 2.31645 8.26628 1.68918 8.89342 1.19827C9.38461 0.813047 9.13135 0.015946 8.4982 0.00928132C3.52965 -0.231315 0.0313395 4.13075 0.219951 8.00762ZM5.5484 5.33106C5.5484 8.958 8.49887 11.9091 12.1265 11.9091C12.605 11.9091 13.1422 11.8678 13.736 11.7152C12.5464 13.492 10.4536 14.6583 8.21029 14.6597C4.39607 14.611 1.68686 11.5812 1.55823 8.23488C1.62354 2.50255 6.78604 1.48952 6.78604 1.48952C6.78604 1.48952 5.5284 3.05706 5.5484 5.33106Z" fill="#191919"/>
</g>
<defs>
<clipPath id="clip0_0_6868">
<rect width="16" height="16" fill="white"/>
</clipPath>
</defs>
</svg>
