<svg width="12" height="12" viewBox="0 0 12 12" fill="none" xmlns="http://www.w3.org/2000/svg">
<mask id="mask0_0_16" style="mask-type:alpha" maskUnits="userSpaceOnUse" x="0" y="0" width="12" height="12">
<rect width="12" height="12" fill="#D9D9D9"/>
</mask>
<g mask="url(#mask0_0_16)">
<path fill-rule="evenodd" clip-rule="evenodd" d="M0 5.99981C0 5.83405 0.0632157 5.67508 0.17574 5.55787C0.288264 5.44066 0.44088 5.37481 0.600014 5.37481H8.7518L6.17534 2.69231C6.06267 2.57496 5.99938 2.41578 5.99938 2.24981C5.99938 2.08384 6.06267 1.92467 6.17534 1.80731C6.28801 1.68995 6.44081 1.62402 6.60015 1.62402C6.75948 1.62402 6.91229 1.68995 7.02496 1.80731L10.625 5.55731C10.6809 5.61537 10.7252 5.68434 10.7555 5.76027C10.7857 5.8362 10.8013 5.9176 10.8013 5.99981C10.8013 6.08202 10.7857 6.16342 10.7555 6.23935C10.7252 6.31529 10.6809 6.38426 10.625 6.44231L7.02496 10.1923C6.91229 10.3097 6.75948 10.3756 6.60015 10.3756C6.44081 10.3756 6.28801 10.3097 6.17534 10.1923C6.06267 10.075 5.99938 9.91578 5.99938 9.74981C5.99938 9.58384 6.06267 9.42467 6.17534 9.30731L8.7518 6.62481H0.600014C0.44088 6.62481 0.288264 6.55897 0.17574 6.44176C0.0632157 6.32455 0 6.16557 0 5.99981Z" fill="#191919"/>
<path fill-rule="evenodd" clip-rule="evenodd" d="M11.3988 1C11.558 1 11.7106 1.06585 11.8231 1.18306C11.9356 1.30027 11.9989 1.45924 11.9989 1.625V10.375C11.9989 10.5408 11.9356 10.6997 11.8231 10.8169C11.7106 10.9342 11.558 11 11.3988 11C11.2397 11 11.0871 10.9342 10.9746 10.8169C10.862 10.6997 10.7988 10.5408 10.7988 10.375V1.625C10.7988 1.45924 10.862 1.30027 10.9746 1.18306C11.0871 1.06585 11.2397 1 11.3988 1Z" fill="#191919"/>
</g>
</svg>
