<svg width="10" height="10" viewBox="0 0 10 10" fill="none" xmlns="http://www.w3.org/2000/svg">
<path d="M4.52938 6.9625L1.53188 3.53625C1.17813 3.13313 1.46563 2.5 2.00251 2.5H7.99751C8.11766 2.4999 8.2353 2.53443 8.33633 2.59946C8.43736 2.6645 8.5175 2.75727 8.56716 2.86668C8.61682 2.97609 8.63389 3.0975 8.61633 3.21636C8.59877 3.33522 8.54731 3.4465 8.46813 3.53688L5.47063 6.96188C5.41197 7.02901 5.33962 7.08281 5.25845 7.11968C5.17728 7.15654 5.08916 7.17561 5.00001 7.17561C4.91086 7.17561 4.82274 7.15654 4.74156 7.11968C4.66039 7.08281 4.58805 7.02901 4.52938 6.96188V6.9625Z" fill="#191919"/>
</svg>
