<svg width="16" height="16" viewBox="0 0 16 16" fill="none" xmlns="http://www.w3.org/2000/svg">
<mask id="mask0_0_6821" style="mask-type:alpha" maskUnits="userSpaceOnUse" x="0" y="0" width="16" height="16">
<rect width="16" height="16" transform="matrix(-1 0 0 1 16 0)" fill="#D9D9D9"/>
</mask>
<g mask="url(#mask0_0_6821)">
<path fill-rule="evenodd" clip-rule="evenodd" d="M0.416666 8.96667H15V7.71667H0.416666V8.96667Z" fill="#1A1A1A"/>
<path fill-rule="evenodd" clip-rule="evenodd" d="M1.04115 7.71667C3.98115 7.71667 6.38281 10.3017 6.38281 13.0583V13.6833H5.13281V13.0583C5.13281 10.9658 3.26448 8.96667 1.04115 8.96667H0.416979V7.71667H1.04115Z" fill="#1A1A1A"/>
<path fill-rule="evenodd" clip-rule="evenodd" d="M1.04115 8.96667C3.98115 8.96667 6.38281 6.38167 6.38281 3.625V3H5.13281V3.625C5.13281 5.71833 3.26448 7.71667 1.04115 7.71667H0.416979V8.96667H1.04115Z" fill="#1A1A1A"/>
</g>
</svg>
