<svg width="14" height="14" viewBox="0 0 14 14" fill="none" xmlns="http://www.w3.org/2000/svg">
<path d="M2.90719 4.1972C3.61209 4.1972 4.18353 3.62576 4.18353 2.92086C4.18353 2.21597 3.61209 1.64453 2.90719 1.64453C2.20229 1.64453 1.63086 2.21597 1.63086 2.92086C1.63086 3.62576 2.20229 4.1972 2.90719 4.1972Z" fill="#545454"/>
<path d="M5.38752 5.16523V12.2463H7.5861V8.74457C7.5861 7.82057 7.75994 6.92573 8.9056 6.92573C10.0355 6.92573 10.0495 7.98215 10.0495 8.8029V12.2469H12.2493V8.36365C12.2493 6.45615 11.8386 4.99023 9.60911 4.99023C8.53869 4.99023 7.82119 5.57765 7.52777 6.13357H7.49802V5.16523H5.38752ZM1.80469 5.16523H4.00677V12.2463H1.80469V5.16523Z" fill="#545454"/>
</svg>
