<svg width="16" height="16" viewBox="0 0 16 16" fill="none" xmlns="http://www.w3.org/2000/svg">
<mask id="mask0_0_6873" style="mask-type:alpha" maskUnits="userSpaceOnUse" x="0" y="0" width="16" height="16">
<rect width="16" height="16" fill="#D9D9D9"/>
</mask>
<g mask="url(#mask0_0_6873)">
<path fill-rule="evenodd" clip-rule="evenodd" d="M4.21426 3.90244H3.17738C2.83196 3.90245 2.49938 4.03334 2.2466 4.26874C1.99382 4.50414 1.83961 4.82658 1.81504 5.17112L1.14616 14.537C1.13282 14.724 1.15815 14.9119 1.22056 15.0887C1.28298 15.2656 1.38116 15.4277 1.50897 15.5649C1.63678 15.7022 1.79149 15.8117 1.96345 15.8865C2.13542 15.9614 2.32095 16 2.5085 16H13.3198C13.5073 15.9999 13.6928 15.9612 13.8647 15.8863C14.0366 15.8114 14.1913 15.7019 14.3191 15.5647C14.4469 15.4275 14.5451 15.2654 14.6075 15.0886C14.67 14.9118 14.6954 14.724 14.6822 14.537L14.0133 5.17112C13.9887 4.82658 13.8345 4.50414 13.5817 4.26874C13.3289 4.03334 12.9964 3.90245 12.6509 3.90244H11.6215V3.70732C11.6215 2.72408 11.2309 1.7811 10.5356 1.08585C9.84037 0.390591 8.8974 0 7.91416 0C5.94148 0 4.11826 1.57112 4.20684 3.70732L4.21426 3.90244ZM11.6215 5.07317V8C11.6215 8.15525 11.5598 8.30414 11.45 8.41392C11.3403 8.52369 11.1914 8.58537 11.0361 8.58537C10.8809 8.58537 10.732 8.52369 10.6222 8.41392C10.5124 8.30414 10.4507 8.15525 10.4507 8V5.07317H5.37758V8C5.37758 8.15525 5.3159 8.30414 5.20613 8.41392C5.09635 8.52369 4.94746 8.58537 4.79221 8.58537C4.63696 8.58537 4.48807 8.52369 4.37829 8.41392C4.26852 8.30414 4.20684 8.15525 4.20684 8C4.20684 8 4.25758 6.63219 4.2408 5.07317H3.17738C3.12811 5.07324 3.08069 5.09195 3.04464 5.12553C3.00859 5.15912 2.98659 5.2051 2.98304 5.25424L2.31377 14.6201C2.31184 14.6468 2.31544 14.6737 2.32436 14.699C2.33327 14.7243 2.3473 14.7475 2.36557 14.7671C2.38385 14.7867 2.40597 14.8024 2.43056 14.8131C2.45515 14.8238 2.48169 14.8293 2.5085 14.8293H13.3198C13.3466 14.8292 13.3731 14.8236 13.3976 14.8128C13.4222 14.8021 13.4442 14.7865 13.4625 14.7669C13.4807 14.7472 13.4948 14.7241 13.5037 14.6989C13.5127 14.6736 13.5164 14.6468 13.5146 14.6201L12.8453 5.25424C12.8417 5.2051 12.8197 5.15912 12.7837 5.12553C12.7476 5.09195 12.7002 5.07324 12.6509 5.07317H11.6215ZM10.4507 3.90244V3.70732C10.4507 3.03457 10.1835 2.38938 9.7078 1.91368C9.2321 1.43798 8.58691 1.17073 7.91416 1.17073C7.24142 1.17073 6.59623 1.43798 6.12052 1.91368C5.64482 2.38938 5.37758 3.03457 5.37758 3.70732V3.90244H10.4507Z" fill="#191919"/>
</g>
</svg>
