<svg width="16" height="16" viewBox="0 0 16 16" fill="none" xmlns="http://www.w3.org/2000/svg">
<g clip-path="url(#clip0_786_566)">
<path d="M0.219921 8.00768C0.228585 12.4084 3.79421 15.954 8.26024 16C11.6719 15.9314 14.6211 13.8486 15.7467 10.6542C15.952 10.0697 15.3182 9.54523 14.7823 9.85714C13.9764 10.3284 13.0594 10.5763 12.1258 10.5756C11.4366 10.5773 10.7539 10.4428 10.1168 10.1798C9.47979 9.91682 8.90098 9.53058 8.41366 9.04325C7.92633 8.55592 7.54009 7.97711 7.27712 7.34007C7.01415 6.70303 6.87964 6.02031 6.88131 5.33112C6.88092 4.5347 7.0619 3.74865 7.41052 3.03258C7.75915 2.31651 8.26625 1.68924 8.89339 1.19833C9.38458 0.813108 9.13132 0.0160071 8.49817 0.00934236C3.52962 -0.231254 0.031309 4.13081 0.219921 8.00768ZM5.54837 5.33112C5.54837 8.95807 8.49884 11.9092 12.1264 11.9092C12.605 11.9092 13.1422 11.8679 13.736 11.7153C12.5463 13.4921 10.4536 14.6584 8.21026 14.6597C4.39604 14.6111 1.68683 11.5813 1.5582 8.23494C1.62351 2.50262 6.78601 1.48958 6.78601 1.48958C6.78601 1.48958 5.52837 3.05712 5.54837 5.33112Z" fill="black"/>
</g>
<defs>
<clipPath id="clip0_786_566">
<rect width="16" height="16" fill="white"/>
</clipPath>
</defs>
</svg>
