<svg width="8" height="6" viewBox="0 0 8 6" fill="none" xmlns="http://www.w3.org/2000/svg">
<path d="M3.52932 4.9625L0.531821 1.53625C0.178071 1.13313 0.465571 0.5 1.00245 0.5H6.99745C7.1176 0.499897 7.23523 0.53443 7.33627 0.599463C7.4373 0.664496 7.51744 0.757273 7.5671 0.866683C7.61676 0.976093 7.63383 1.0975 7.61627 1.21636C7.5987 1.33522 7.54725 1.4465 7.46807 1.53688L4.47057 4.96188C4.41191 5.02901 4.33956 5.08281 4.25839 5.11968C4.17722 5.15654 4.0891 5.17561 3.99995 5.17561C3.91079 5.17561 3.82267 5.15654 3.7415 5.11968C3.66033 5.08281 3.58798 5.02901 3.52932 4.96188V4.9625Z" fill="#191919"/>
</svg>
